<svg width="920" height="260" viewBox="0 0 920 260" preserveAspectRatio="xMidYMid meet" style="width:100%;height:100%;display:block;background:var(--pp-bg, #fafbfc);color:var(--pp-text, #0b0c0f);font-family:Inter, -apple-system, BlinkMacSystemFont, &quot;Segoe UI&quot;, system-ui, sans-serif" data-theme="light" role="img" aria-label="Gantt chart: Basic Chart Fixture"><defs><linearGradient id="pp-embed-grad" x1="0" y1="0" x2="1" y2="1"><stop offset="0%" stop-color="#7c83ff"></stop><stop offset="55%" stop-color="#a78bfa"></stop><stop offset="100%" stop-color="#fb7185"></stop></linearGradient><clipPath id="pp-clip-BasicChartFixture"><rect x="180" y="56" width="740" height="204"></rect></clipPath></defs><rect x="0" y="0" width="920" height="260" fill="var(--pp-bg, #fafbfc)"></rect><rect x="0" y="0" width="180" height="260" fill="var(--pp-bg-panel, #ffffff)"></rect><line x1="180" y1="0" x2="180" y2="260" stroke="var(--pp-border-hair, rgba(0,0,0,0.06))"></line><g transform="translate(180 0)"><rect x="0" y="0" width="740" height="24" fill="var(--pp-bg-panel, #ffffff)"></rect><g transform="translate(-43.529411764705884 0)"><line x1="0" y1="0" x2="0" y2="24" stroke="var(--pp-border-hair, rgba(0,0,0,0.06))"></line><text x="6" y="16" fill="var(--pp-text-soft, #5b6068)" font-size="10" font-weight="600">Jan 2026</text></g><g transform="translate(631.1764705882354 0)"><line x1="0" y1="0" x2="0" y2="24" stroke="var(--pp-border-hair, rgba(0,0,0,0.06))"></line><text x="6" y="16" fill="var(--pp-text-soft, #5b6068)" font-size="10" font-weight="600">Feb 2026</text></g><g transform="translate(0 24)"><rect x="0" y="0" width="740" height="20" fill="var(--pp-bg, #fafbfc)"></rect><g transform="translate(-108.82352941176471 0)"><line x1="0" y1="0" x2="0" y2="20" stroke="var(--pp-border-hair, rgba(0,0,0,0.06))"></line><text x="4" y="14" fill="var(--pp-text-dim, #8b8f97)" font-size="9">Dec 29</text></g><g transform="translate(43.529411764705884 0)"><line x1="0" y1="0" x2="0" y2="20" stroke="var(--pp-border-hair, rgba(0,0,0,0.06))"></line><text x="4" y="14" fill="var(--pp-text-dim, #8b8f97)" font-size="9">Jan 5</text></g><g transform="translate(195.88235294117646 0)"><line x1="0" y1="0" x2="0" y2="20" stroke="var(--pp-border-hair, rgba(0,0,0,0.06))"></line><text x="4" y="14" fill="var(--pp-text-dim, #8b8f97)" font-size="9">Jan 12</text></g><g transform="translate(348.2352941176471 0)"><line x1="0" y1="0" x2="0" y2="20" stroke="var(--pp-border-hair, rgba(0,0,0,0.06))"></line><text x="4" y="14" fill="var(--pp-text-dim, #8b8f97)" font-size="9">Jan 19</text></g><g transform="translate(500.5882352941177 0)"><line x1="0" y1="0" x2="0" y2="20" stroke="var(--pp-border-hair, rgba(0,0,0,0.06))"></line><text x="4" y="14" fill="var(--pp-text-dim, #8b8f97)" font-size="9">Jan 26</text></g><g transform="translate(652.9411764705883 0)"><line x1="0" y1="0" x2="0" y2="20" stroke="var(--pp-border-hair, rgba(0,0,0,0.06))"></line><text x="4" y="14" fill="var(--pp-text-dim, #8b8f97)" font-size="9">Feb 2</text></g></g></g><g transform="translate(0 56)"><g transform="translate(0 0)"><text x="12" y="22" fill="var(--pp-text, #0b0c0f)" font-size="11" font-weight="500">Phase 1</text><line x1="0" y1="36" x2="920" y2="36" stroke="var(--pp-border-hair, rgba(0,0,0,0.06))" stroke-width="0.5"></line></g><g transform="translate(0 36)"><text x="28" y="40" fill="var(--pp-text, #0b0c0f)" font-size="11" font-weight="500">Design</text><line x1="0" y1="72" x2="920" y2="72" stroke="var(--pp-border-hair, rgba(0,0,0,0.06))" stroke-width="0.5"></line></g><g transform="translate(0 108)"><text x="28" y="22" fill="var(--pp-text, #0b0c0f)" font-size="11" font-weight="500">Build</text><line x1="0" y1="36" x2="920" y2="36" stroke="var(--pp-border-hair, rgba(0,0,0,0.06))" stroke-width="0.5"></line></g><g transform="translate(0 144)"><text x="12" y="22" fill="var(--pp-text, #0b0c0f)" font-size="11" font-weight="500">Launch</text><line x1="0" y1="36" x2="920" y2="36" stroke="var(--pp-border-hair, rgba(0,0,0,0.06))" stroke-width="0.5"></line></g></g><g transform="translate(180 56)" clip-path="url(#pp-clip-BasicChartFixture)"><rect x="0" y="0" width="21.764705882352942" height="180" fill="var(--pp-weekend, rgba(0,0,0,0.025))"></rect><rect x="21.764705882352942" y="0" width="21.764705882352942" height="180" fill="var(--pp-weekend, rgba(0,0,0,0.025))"></rect><rect x="152.3529411764706" y="0" width="21.764705882352942" height="180" fill="var(--pp-weekend, rgba(0,0,0,0.025))"></rect><rect x="174.11764705882354" y="0" width="21.764705882352942" height="180" fill="var(--pp-weekend, rgba(0,0,0,0.025))"></rect><rect x="304.7058823529412" y="0" width="21.764705882352942" height="180" fill="var(--pp-weekend, rgba(0,0,0,0.025))"></rect><rect x="326.47058823529414" y="0" width="21.764705882352942" height="180" fill="var(--pp-weekend, rgba(0,0,0,0.025))"></rect><rect x="457.05882352941177" y="0" width="21.764705882352942" height="180" fill="var(--pp-weekend, rgba(0,0,0,0.025))"></rect><rect x="478.82352941176475" y="0" width="21.764705882352942" height="180" fill="var(--pp-weekend, rgba(0,0,0,0.025))"></rect><rect x="609.4117647058824" y="0" width="21.764705882352942" height="180" fill="var(--pp-weekend, rgba(0,0,0,0.025))"></rect><rect x="631.1764705882354" y="0" width="21.764705882352942" height="180" fill="var(--pp-weekend, rgba(0,0,0,0.025))"></rect><g pointer-events="none"><line x1="43.529411764705884" y1="26" x2="565.8823529411765" y2="26" stroke="var(--pp-accent, #4f46e5)" stroke-width="1.2"></line><line x1="43.529411764705884" y1="26" x2="43.529411764705884" y2="31" stroke="var(--pp-accent, #4f46e5)" stroke-width="1.2"></line><line x1="565.8823529411765" y1="26" x2="565.8823529411765" y2="31" stroke="var(--pp-accent, #4f46e5)" stroke-width="1.2"></line><text x="304.7058823529412" y="22" text-anchor="middle" font-size="9.5" font-weight="600" fill="var(--pp-accent, #4f46e5)">Delivery</text></g><g pointer-events="none"><rect x="43.529411764705884" y="14" width="522.3529411764706" height="5" rx="1.5" fill="var(--pp-text-soft, #5b6068)" opacity="0.55"></rect></g><g pointer-events="none"><rect x="43.529411764705884" y="43" width="174.11764705882354" height="22" rx="3" fill="var(--pp-accent, #4f46e5)" opacity="0.92"></rect><text x="49.529411764705884" y="57.5" font-size="10" fill="white" font-weight="500">Design A</text></g><g pointer-events="none"><rect x="152.3529411764706" y="79" width="195.88235294117646" height="22" rx="3" fill="var(--pp-accent, #4f46e5)" opacity="0.92"></rect><text x="158.3529411764706" y="93.5" font-size="10" fill="white" font-weight="500">Design B</text></g><g pointer-events="none"><rect x="261.1764705882353" y="115" width="304.70588235294116" height="22" rx="3" fill="var(--pp-accent, #4f46e5)" opacity="0.92"></rect><text x="267.1764705882353" y="129.5" font-size="10" fill="white" font-weight="500">Build</text></g><g pointer-events="none"><rect x="500.5882352941177" y="151" width="174.11764705882354" height="22" rx="3" fill="var(--pp-accent, #4f46e5)" opacity="0.92"></rect><text x="506.5882352941177" y="165.5" font-size="10" fill="white" font-weight="500">Launch prep</text></g><g pointer-events="none"><polygon points="685.5882352941177,154 693.5882352941177,162 685.5882352941177,170 677.5882352941177,162" fill="#fbbf24" stroke="rgba(0,0,0,0.3)" stroke-width="1"></polygon></g><path d="M 217.64705882352942 54 L 239.41176470588238 54 L 239.41176470588238 126 L 261.1764705882353 126" fill="none" stroke="var(--pp-text-soft, #5b6068)" stroke-width="1" opacity="0.7" pointer-events="none"></path></g><line x1="180" y1="56" x2="920" y2="56" stroke="var(--pp-border-hair, rgba(0,0,0,0.06))"></line><style>
        svg[data-theme='light'] {
          --pp-bg: #fafbfc;
          --pp-bg-panel: #ffffff;
          --pp-text: #0b0c0f;
          --pp-text-soft: #5b6068;
          --pp-text-dim: #8b8f97;
          --pp-border-hair: rgba(0, 0, 0, 0.06);
          --pp-weekend: rgba(0, 0, 0, 0.025);
          --pp-accent: #4f46e5;
          --pp-today: #f87171;
          --pp-deadline: #fbbf24;
          --pp-bar-progress: rgba(0, 0, 0, 0.28);
        }
        svg[data-theme='dark'] {
          --pp-bg: #0b0c0f;
          --pp-bg-panel: #101216;
          --pp-text: #f0f1f3;
          --pp-text-soft: #a1a5ad;
          --pp-text-dim: #6b7079;
          --pp-border-hair: rgba(255, 255, 255, 0.06);
          --pp-weekend: rgba(255, 255, 255, 0.025);
          --pp-accent: #818cf8;
          --pp-today: #f87171;
          --pp-deadline: #fbbf24;
          --pp-bar-progress: rgba(0, 0, 0, 0.45);
        }
        svg[data-theme='print'] {
          --pp-bg: #ffffff;
          --pp-bg-panel: #ffffff;
          --pp-text: #000000;
          --pp-text-soft: #333333;
          --pp-text-dim: #777777;
          --pp-border-hair: #cccccc;
          --pp-weekend: #f3f3f3;
          --pp-accent: #000000;
          --pp-today: #d00000;
          --pp-deadline: #aa6000;
          --pp-bar-progress: rgba(0, 0, 0, 0.35);
        }
      </style></svg>
