<svg width="920" height="368" viewBox="0 0 920 368" preserveAspectRatio="xMidYMid meet" style="width:100%;height:100%;display:block;background:var(--pp-bg, #fafbfc);color:var(--pp-text, #0b0c0f);font-family:Inter, -apple-system, BlinkMacSystemFont, &quot;Segoe UI&quot;, system-ui, sans-serif" data-theme="light" role="img" aria-label="Gantt chart: Q3 Launch Plan"><defs><linearGradient id="pp-embed-grad" x1="0" y1="0" x2="1" y2="1"><stop offset="0%" stop-color="#7c83ff"></stop><stop offset="55%" stop-color="#a78bfa"></stop><stop offset="100%" stop-color="#fb7185"></stop></linearGradient><clipPath id="pp-clip-Q3LaunchPlan"><rect x="180" y="56" width="740" height="312"></rect></clipPath></defs><rect x="0" y="0" width="920" height="368" fill="var(--pp-bg, #fafbfc)"></rect><rect x="0" y="0" width="180" height="368" fill="var(--pp-bg-panel, #ffffff)"></rect><line x1="180" y1="0" x2="180" y2="368" stroke="var(--pp-border-hair, rgba(0,0,0,0.06))"></line><g transform="translate(180 0)"><rect x="0" y="0" width="740" height="24" fill="var(--pp-bg-panel, #ffffff)"></rect><g transform="translate(-237.53086419753086 0)"><line x1="0" y1="0" x2="0" y2="24" stroke="var(--pp-border-hair, rgba(0,0,0,0.06))"></line><text x="6" y="16" fill="var(--pp-text-soft, #5b6068)" font-size="10" font-weight="600">May 2026</text></g><g transform="translate(45.67901234567901 0)"><line x1="0" y1="0" x2="0" y2="24" stroke="var(--pp-border-hair, rgba(0,0,0,0.06))"></line><text x="6" y="16" fill="var(--pp-text-soft, #5b6068)" font-size="10" font-weight="600">Jun 2026</text></g><g transform="translate(319.75308641975306 0)"><line x1="0" y1="0" x2="0" y2="24" stroke="var(--pp-border-hair, rgba(0,0,0,0.06))"></line><text x="6" y="16" fill="var(--pp-text-soft, #5b6068)" font-size="10" font-weight="600">Jul 2026</text></g><g transform="translate(602.9629629629629 0)"><line x1="0" y1="0" x2="0" y2="24" stroke="var(--pp-border-hair, rgba(0,0,0,0.06))"></line><text x="6" y="16" fill="var(--pp-text-soft, #5b6068)" font-size="10" font-weight="600">Aug 2026</text></g><g transform="translate(0 24)"><rect x="0" y="0" width="740" height="20" fill="var(--pp-bg, #fafbfc)"></rect><g transform="translate(-18.271604938271604 0)"><line x1="0" y1="0" x2="0" y2="20" stroke="var(--pp-border-hair, rgba(0,0,0,0.06))"></line><text x="4" y="14" fill="var(--pp-text-dim, #8b8f97)" font-size="9">May 25</text></g><g transform="translate(45.67901234567901 0)"><line x1="0" y1="0" x2="0" y2="20" stroke="var(--pp-border-hair, rgba(0,0,0,0.06))"></line><text x="4" y="14" fill="var(--pp-text-dim, #8b8f97)" font-size="9">Jun 1</text></g><g transform="translate(109.62962962962962 0)"><line x1="0" y1="0" x2="0" y2="20" stroke="var(--pp-border-hair, rgba(0,0,0,0.06))"></line><text x="4" y="14" fill="var(--pp-text-dim, #8b8f97)" font-size="9">Jun 8</text></g><g transform="translate(173.58024691358025 0)"><line x1="0" y1="0" x2="0" y2="20" stroke="var(--pp-border-hair, rgba(0,0,0,0.06))"></line><text x="4" y="14" fill="var(--pp-text-dim, #8b8f97)" font-size="9">Jun 15</text></g><g transform="translate(237.53086419753086 0)"><line x1="0" y1="0" x2="0" y2="20" stroke="var(--pp-border-hair, rgba(0,0,0,0.06))"></line><text x="4" y="14" fill="var(--pp-text-dim, #8b8f97)" font-size="9">Jun 22</text></g><g transform="translate(301.48148148148147 0)"><line x1="0" y1="0" x2="0" y2="20" stroke="var(--pp-border-hair, rgba(0,0,0,0.06))"></line><text x="4" y="14" fill="var(--pp-text-dim, #8b8f97)" font-size="9">Jun 29</text></g><g transform="translate(365.4320987654321 0)"><line x1="0" y1="0" x2="0" y2="20" stroke="var(--pp-border-hair, rgba(0,0,0,0.06))"></line><text x="4" y="14" fill="var(--pp-text-dim, #8b8f97)" font-size="9">Jul 6</text></g><g transform="translate(429.3827160493827 0)"><line x1="0" y1="0" x2="0" y2="20" stroke="var(--pp-border-hair, rgba(0,0,0,0.06))"></line><text x="4" y="14" fill="var(--pp-text-dim, #8b8f97)" font-size="9">Jul 13</text></g><g transform="translate(493.3333333333333 0)"><line x1="0" y1="0" x2="0" y2="20" stroke="var(--pp-border-hair, rgba(0,0,0,0.06))"></line><text x="4" y="14" fill="var(--pp-text-dim, #8b8f97)" font-size="9">Jul 20</text></g><g transform="translate(557.283950617284 0)"><line x1="0" y1="0" x2="0" y2="20" stroke="var(--pp-border-hair, rgba(0,0,0,0.06))"></line><text x="4" y="14" fill="var(--pp-text-dim, #8b8f97)" font-size="9">Jul 27</text></g><g transform="translate(621.2345679012345 0)"><line x1="0" y1="0" x2="0" y2="20" stroke="var(--pp-border-hair, rgba(0,0,0,0.06))"></line><text x="4" y="14" fill="var(--pp-text-dim, #8b8f97)" font-size="9">Aug 3</text></g><g transform="translate(685.1851851851852 0)"><line x1="0" y1="0" x2="0" y2="20" stroke="var(--pp-border-hair, rgba(0,0,0,0.06))"></line><text x="4" y="14" fill="var(--pp-text-dim, #8b8f97)" font-size="9">Aug 10</text></g><g transform="translate(749.1358024691358 0)"><line x1="0" y1="0" x2="0" y2="20" stroke="var(--pp-border-hair, rgba(0,0,0,0.06))"></line><text x="4" y="14" fill="var(--pp-text-dim, #8b8f97)" font-size="9">Aug 17</text></g></g></g><g transform="translate(0 56)"><g transform="translate(0 0)"><text x="12" y="22" fill="var(--pp-text, #0b0c0f)" font-size="11" font-weight="500">Phase 1</text><line x1="0" y1="36" x2="920" y2="36" stroke="var(--pp-border-hair, rgba(0,0,0,0.06))" stroke-width="0.5"></line></g><g transform="translate(0 36)"><text x="28" y="40" fill="var(--pp-text, #0b0c0f)" font-size="11" font-weight="500">Research</text><line x1="0" y1="72" x2="920" y2="72" stroke="var(--pp-border-hair, rgba(0,0,0,0.06))" stroke-width="0.5"></line></g><g transform="translate(0 108)"><text x="28" y="40" fill="var(--pp-text, #0b0c0f)" font-size="11" font-weight="500">Design</text><line x1="0" y1="72" x2="920" y2="72" stroke="var(--pp-border-hair, rgba(0,0,0,0.06))" stroke-width="0.5"></line></g><g transform="translate(0 180)"><text x="12" y="40" fill="var(--pp-text, #0b0c0f)" font-size="11" font-weight="500">Build</text><line x1="0" y1="72" x2="920" y2="72" stroke="var(--pp-border-hair, rgba(0,0,0,0.06))" stroke-width="0.5"></line></g><g transform="translate(0 252)"><text x="12" y="22" fill="var(--pp-text, #0b0c0f)" font-size="11" font-weight="500">Launch</text><line x1="0" y1="36" x2="920" y2="36" stroke="var(--pp-border-hair, rgba(0,0,0,0.06))" stroke-width="0.5"></line></g></g><g transform="translate(180 56)" clip-path="url(#pp-clip-Q3LaunchPlan)"><rect x="27.407407407407405" y="0" width="9.135802469135802" height="288" fill="var(--pp-weekend, rgba(0,0,0,0.025))"></rect><rect x="36.54320987654321" y="0" width="9.135802469135802" height="288" fill="var(--pp-weekend, rgba(0,0,0,0.025))"></rect><rect x="91.35802469135803" y="0" width="9.135802469135802" height="288" fill="var(--pp-weekend, rgba(0,0,0,0.025))"></rect><rect x="100.49382716049382" y="0" width="9.135802469135802" height="288" fill="var(--pp-weekend, rgba(0,0,0,0.025))"></rect><rect x="155.30864197530863" y="0" width="9.135802469135802" height="288" fill="var(--pp-weekend, rgba(0,0,0,0.025))"></rect><rect x="164.44444444444443" y="0" width="9.135802469135802" height="288" fill="var(--pp-weekend, rgba(0,0,0,0.025))"></rect><rect x="219.25925925925924" y="0" width="9.135802469135802" height="288" fill="var(--pp-weekend, rgba(0,0,0,0.025))"></rect><rect x="228.39506172839506" y="0" width="9.135802469135802" height="288" fill="var(--pp-weekend, rgba(0,0,0,0.025))"></rect><rect x="283.2098765432099" y="0" width="9.135802469135802" height="288" fill="var(--pp-weekend, rgba(0,0,0,0.025))"></rect><rect x="292.34567901234567" y="0" width="9.135802469135802" height="288" fill="var(--pp-weekend, rgba(0,0,0,0.025))"></rect><rect x="347.1604938271605" y="0" width="9.135802469135802" height="288" fill="var(--pp-weekend, rgba(0,0,0,0.025))"></rect><rect x="356.2962962962963" y="0" width="9.135802469135802" height="288" fill="var(--pp-weekend, rgba(0,0,0,0.025))"></rect><rect x="411.1111111111111" y="0" width="9.135802469135802" height="288" fill="var(--pp-weekend, rgba(0,0,0,0.025))"></rect><rect x="420.2469135802469" y="0" width="9.135802469135802" height="288" fill="var(--pp-weekend, rgba(0,0,0,0.025))"></rect><rect x="475.0617283950617" y="0" width="9.135802469135802" height="288" fill="var(--pp-weekend, rgba(0,0,0,0.025))"></rect><rect x="484.1975308641975" y="0" width="9.135802469135802" height="288" fill="var(--pp-weekend, rgba(0,0,0,0.025))"></rect><rect x="539.0123456790124" y="0" width="9.135802469135802" height="288" fill="var(--pp-weekend, rgba(0,0,0,0.025))"></rect><rect x="548.1481481481482" y="0" width="9.135802469135802" height="288" fill="var(--pp-weekend, rgba(0,0,0,0.025))"></rect><rect x="602.9629629629629" y="0" width="9.135802469135802" height="288" fill="var(--pp-weekend, rgba(0,0,0,0.025))"></rect><rect x="612.0987654320987" y="0" width="9.135802469135802" height="288" fill="var(--pp-weekend, rgba(0,0,0,0.025))"></rect><rect x="666.9135802469135" y="0" width="9.135802469135802" height="288" fill="var(--pp-weekend, rgba(0,0,0,0.025))"></rect><rect x="676.0493827160493" y="0" width="9.135802469135802" height="288" fill="var(--pp-weekend, rgba(0,0,0,0.025))"></rect><rect x="730.8641975308642" y="0" width="9.135802469135802" height="288" fill="var(--pp-weekend, rgba(0,0,0,0.025))"></rect><rect x="740" y="0" width="9.135802469135802" height="288" fill="var(--pp-weekend, rgba(0,0,0,0.025))"></rect><g pointer-events="none"><line x1="365.4320987654321" y1="170" x2="666.9135802469135" y2="170" stroke="var(--pp-accent, #4f46e5)" stroke-width="1.2"></line><line x1="365.4320987654321" y1="170" x2="365.4320987654321" y2="175" stroke="var(--pp-accent, #4f46e5)" stroke-width="1.2"></line><line x1="666.9135802469135" y1="170" x2="666.9135802469135" y2="175" stroke="var(--pp-accent, #4f46e5)" stroke-width="1.2"></line><text x="516.1728395061727" y="166" text-anchor="middle" font-size="9.5" font-weight="600" fill="var(--pp-accent, #4f46e5)">Delivery</text></g><g pointer-events="none"><rect x="45.67901234567901" y="14" width="365.4320987654321" height="5" rx="1.5" fill="var(--pp-text-soft, #5b6068)" opacity="0.55"></rect></g><g pointer-events="none"><rect x="45.67901234567901" y="43" width="109.62962962962962" height="22" rx="3" fill="#818CF8" opacity="0.92"></rect><rect x="45.67901234567901" y="62" width="109.62962962962962" height="3" fill="var(--pp-bar-progress, rgba(0,0,0,0.28))"></rect><text x="51.67901234567901" y="57.5" font-size="10" fill="white" font-weight="500">Discovery</text></g><g pointer-events="none"><rect x="109.62962962962962" y="79" width="109.62962962962962" height="22" rx="3" fill="#818CF8" opacity="0.92"></rect><rect x="109.62962962962962" y="98" width="65.77777777777777" height="3" fill="var(--pp-bar-progress, rgba(0,0,0,0.28))"></rect><text x="115.62962962962962" y="93.5" font-size="10" fill="white" font-weight="500">Interviews</text></g><g pointer-events="none"><rect x="173.58024691358025" y="115" width="109.62962962962962" height="22" rx="3" fill="#34D399" opacity="0.92"></rect><rect x="173.58024691358025" y="134" width="43.85185185185184" height="3" fill="var(--pp-bar-progress, rgba(0,0,0,0.28))"></rect><text x="179.58024691358025" y="129.5" font-size="10" fill="white" font-weight="500">Wireframes</text></g><g pointer-events="none"><rect x="237.53086419753086" y="151" width="173.58024691358023" height="22" rx="3" fill="#34D399" opacity="0.92"></rect><rect x="237.53086419753086" y="170" width="17.358024691358022" height="3" fill="var(--pp-bar-progress, rgba(0,0,0,0.28))"></rect><text x="243.53086419753086" y="165.5" font-size="10" fill="white" font-weight="500">Visual design</text></g><g pointer-events="none"><rect x="365.4320987654321" y="187" width="237.53086419753083" height="22" rx="3" fill="#F472B6" opacity="0.92"></rect><text x="371.4320987654321" y="201.5" font-size="10" fill="white" font-weight="500">Implementation</text></g><g pointer-events="none"><rect x="557.283950617284" y="223" width="109.62962962962956" height="22" rx="3" fill="#F472B6" opacity="0.92"></rect><text x="563.283950617284" y="237.5" font-size="10" fill="white" font-weight="500">QA + polish</text></g><g pointer-events="none"><polygon points="406.5432098765432,118 414.5432098765432,126 406.5432098765432,134 398.5432098765432,126" fill="#FBBF24" stroke="rgba(0,0,0,0.3)" stroke-width="1"></polygon></g><g pointer-events="none"><polygon points="689.7530864197531,262 697.7530864197531,270 689.7530864197531,278 681.7530864197531,270" fill="#FBBF24" stroke="rgba(0,0,0,0.3)" stroke-width="1"></polygon></g><path d="M 155.30864197530863 54 L 164.44444444444446 54 L 164.44444444444446 126 L 173.58024691358025 126" fill="none" stroke="var(--pp-text-soft, #5b6068)" stroke-width="1" opacity="0.7" pointer-events="none"></path><path d="M 283.2098765432099 126 L 324.320987654321 126 L 324.320987654321 198 L 365.4320987654321 198" fill="none" stroke="var(--pp-text-soft, #5b6068)" stroke-width="1" opacity="0.7" pointer-events="none"></path><path d="M 602.9629629629629 198 L 580.1234567901234 198 L 580.1234567901234 234 L 557.283950617284 234" fill="none" stroke="var(--pp-text-soft, #5b6068)" stroke-width="1" opacity="0.7" pointer-events="none"></path></g><line x1="180" y1="56" x2="920" y2="56" stroke="var(--pp-border-hair, rgba(0,0,0,0.06))"></line><style>
        svg[data-theme='light'] {
          --pp-bg: #fafbfc;
          --pp-bg-panel: #ffffff;
          --pp-text: #0b0c0f;
          --pp-text-soft: #5b6068;
          --pp-text-dim: #8b8f97;
          --pp-border-hair: rgba(0, 0, 0, 0.06);
          --pp-weekend: rgba(0, 0, 0, 0.025);
          --pp-accent: #4f46e5;
          --pp-today: #f87171;
          --pp-deadline: #fbbf24;
          --pp-bar-progress: rgba(0, 0, 0, 0.28);
        }
        svg[data-theme='dark'] {
          --pp-bg: #0b0c0f;
          --pp-bg-panel: #101216;
          --pp-text: #f0f1f3;
          --pp-text-soft: #a1a5ad;
          --pp-text-dim: #6b7079;
          --pp-border-hair: rgba(255, 255, 255, 0.06);
          --pp-weekend: rgba(255, 255, 255, 0.025);
          --pp-accent: #818cf8;
          --pp-today: #f87171;
          --pp-deadline: #fbbf24;
          --pp-bar-progress: rgba(0, 0, 0, 0.45);
        }
        svg[data-theme='print'] {
          --pp-bg: #ffffff;
          --pp-bg-panel: #ffffff;
          --pp-text: #000000;
          --pp-text-soft: #333333;
          --pp-text-dim: #777777;
          --pp-border-hair: #cccccc;
          --pp-weekend: #f3f3f3;
          --pp-accent: #000000;
          --pp-today: #d00000;
          --pp-deadline: #aa6000;
          --pp-bar-progress: rgba(0, 0, 0, 0.35);
        }
      </style></svg>
